<?xml version="1.0" encoding="UTF-8"?>
<svg xmlns="http://www.w3.org/2000/svg" xmlns:xlink="http://www.w3.org/1999/xlink" width="375pt" height="374.999991pt" viewBox="0 0 375 374.999991" version="1.2">
<defs>
<clipPath id="clip1">
  <path d="M 74 54.382812 L 341 54.382812 L 341 320.632812 L 74 320.632812 Z M 74 54.382812 "/>
</clipPath>
<clipPath id="clip2">
  <path d="M 33.6875 54.382812 L 301 54.382812 L 301 320.632812 L 33.6875 320.632812 Z M 33.6875 54.382812 "/>
</clipPath>
<clipPath id="clip3">
  <path d="M 203 311 L 218 311 L 218 320.632812 L 203 320.632812 Z M 203 311 "/>
</clipPath>
</defs>
<g id="surface1">
<path style=" stroke:none;fill-rule:nonzero;fill:rgb(21.958923%,71.369934%,100%);fill-opacity:1;" d="M 336.410156 187.511719 C 336.410156 258.554688 278.84375 316.140625 207.832031 316.140625 L 167.03125 316.140625 C 173.96875 316.140625 180.785156 315.585938 187.429688 314.523438 C 248.753906 304.75 295.609375 251.605469 295.609375 187.511719 C 295.609375 139.007812 256.3125 99.695312 207.832031 99.695312 C 200.804688 99.695312 193.976562 100.519531 187.429688 102.085938 C 148.796875 111.285156 120.066406 146.039062 120.066406 187.511719 C 120.066406 228.976562 148.796875 263.730469 187.429688 272.929688 C 180.886719 274.496094 174.058594 275.320312 167.03125 275.320312 C 118.558594 275.320312 79.265625 236.007812 79.265625 187.511719 C 79.265625 123.417969 126.121094 70.265625 187.429688 60.492188 C 194.078125 59.425781 200.894531 58.875 207.832031 58.875 L 207.84375 58.875 C 278.851562 58.882812 336.410156 116.46875 336.410156 187.511719 Z M 336.410156 187.511719 "/>
<g clip-path="url(#clip1)" clip-rule="nonzero">
<path style=" stroke:none;fill-rule:nonzero;fill:rgb(13.729858%,12.159729%,12.548828%);fill-opacity:1;" d="M 207.832031 320.632812 L 167.03125 320.632812 C 164.550781 320.632812 162.542969 318.621094 162.542969 316.140625 C 162.542969 313.660156 164.550781 311.648438 167.03125 311.648438 C 173.632812 311.648438 180.257812 311.121094 186.722656 310.085938 C 247.214844 300.449219 291.121094 248.898438 291.121094 187.511719 C 291.121094 141.566406 253.757812 104.1875 207.832031 104.1875 C 201.273438 104.1875 194.757812 104.949219 188.476562 106.453125 C 150.839844 115.417969 124.554688 148.75 124.554688 187.511719 C 124.554688 226.269531 150.839844 259.597656 188.46875 268.558594 C 190.492188 269.039062 191.921875 270.847656 191.921875 272.925781 C 191.921875 275.003906 190.496094 276.8125 188.476562 277.296875 C 181.503906 278.96875 174.289062 279.8125 167.03125 279.8125 C 116.160156 279.8125 74.773438 238.40625 74.773438 187.511719 C 74.773438 121.679688 121.855469 66.394531 186.726562 56.054688 C 193.644531 54.945312 200.746094 54.382812 207.832031 54.382812 C 281.210938 54.390625 340.898438 114.113281 340.898438 187.511719 C 340.898438 260.914062 281.207031 320.632812 207.832031 320.632812 Z M 207.832031 95.203125 C 258.707031 95.203125 300.097656 136.613281 300.097656 187.511719 C 300.097656 243.457031 266.089844 291.78125 216.058594 311.378906 C 280.660156 307.128906 331.921875 253.195312 331.921875 187.511719 C 331.921875 119.066406 276.257812 63.375 207.84375 63.367188 C 201.222656 63.367188 194.597656 63.890625 188.140625 64.925781 C 127.652344 74.566406 83.753906 126.121094 83.753906 187.511719 C 83.753906 233.453125 121.113281 270.828125 167.03125 270.828125 C 167.351562 270.828125 167.671875 270.824219 167.992188 270.824219 C 136.378906 255.789062 115.574219 223.800781 115.574219 187.511719 C 115.574219 144.570312 144.695312 107.644531 186.390625 97.714844 C 193.355469 96.046875 200.570312 95.203125 207.832031 95.203125 Z M 207.832031 95.203125 "/>
</g>
<g clip-path="url(#clip2)" clip-rule="nonzero">
<path style=" stroke:none;fill-rule:nonzero;fill:rgb(13.729858%,12.159729%,12.548828%);fill-opacity:1;" d="M 167.03125 320.632812 C 93.660156 320.632812 33.972656 260.914062 33.972656 187.511719 C 33.972656 114.558594 93.285156 54.839844 166.191406 54.382812 L 207.832031 54.382812 C 210.3125 54.382812 212.320312 56.394531 212.320312 58.875 C 212.320312 61.355469 210.3125 63.367188 207.832031 63.367188 C 201.222656 63.367188 194.597656 63.890625 188.140625 64.925781 C 127.652344 74.566406 83.753906 126.121094 83.753906 187.511719 C 83.753906 233.453125 121.113281 270.828125 167.03125 270.828125 C 173.585938 270.828125 180.097656 270.066406 186.386719 268.558594 C 224.03125 259.597656 250.316406 226.269531 250.316406 187.511719 C 250.316406 148.75 224.03125 115.417969 186.390625 106.457031 C 184.371094 105.972656 182.941406 104.167969 182.941406 102.089844 C 182.941406 100.007812 184.363281 98.199219 186.386719 97.714844 C 193.355469 96.046875 200.570312 95.203125 207.832031 95.203125 C 258.707031 95.203125 300.097656 136.613281 300.097656 187.511719 C 300.097656 253.335938 253.011719 308.621094 188.136719 318.960938 C 181.207031 320.070312 174.105469 320.632812 167.03125 320.632812 Z M 158.816406 63.632812 C 94.289062 67.878906 42.953125 121.96875 42.953125 187.511719 C 42.953125 255.960938 98.613281 311.648438 167.03125 311.648438 C 173.632812 311.648438 180.257812 311.121094 186.722656 310.085938 C 247.214844 300.449219 291.121094 248.898438 291.121094 187.511719 C 291.121094 141.566406 253.757812 104.1875 207.832031 104.1875 C 207.511719 104.1875 207.195312 104.1875 206.878906 104.191406 C 238.496094 119.222656 259.296875 151.21875 259.296875 187.511719 C 259.296875 230.449219 230.171875 267.367188 188.46875 277.296875 C 181.503906 278.96875 174.289062 279.8125 167.03125 279.8125 C 116.160156 279.8125 74.773438 238.40625 74.773438 187.511719 C 74.773438 131.5625 108.78125 83.226562 158.816406 63.632812 Z M 158.816406 63.632812 "/>
</g>
<g clip-path="url(#clip3)" clip-rule="nonzero">
<path style=" stroke:none;fill-rule:nonzero;fill:rgb(13.729858%,12.159729%,12.548828%);fill-opacity:1;" d="M 212.652344 320.632812 L 207.832031 320.632812 C 205.351562 320.632812 203.34375 318.621094 203.34375 316.140625 C 203.34375 313.660156 205.351562 311.648438 207.832031 311.648438 L 212.652344 311.648438 C 215.132812 311.648438 217.140625 313.660156 217.140625 316.140625 C 217.140625 318.621094 215.132812 320.632812 212.652344 320.632812 Z M 212.652344 320.632812 "/>
</g>
</g>
</svg>
